<svg width="84" height="82" viewBox="0 0 84 82" fill="none" xmlns="http://www.w3.org/2000/svg">
<path d="M8.40287 36.2171C8.05581 34.9852 8.04727 33.6858 8.37811 32.4494C8.70895 31.213 9.36751 30.0832 10.2876 29.1736L29.4599 10.2173C30.3799 9.30759 31.529 8.65011 32.7917 8.31092C34.0544 7.97174 35.3862 7.96282 36.6532 8.28507L54.7397 12.884C54.9118 10.4693 55.7579 8.14616 57.1862 6.1663L35.4023 0.627839C33.8387 0.230306 32.1952 0.241374 30.637 0.659936C29.0788 1.0785 27.6607 1.88981 26.5253 3.01233L2.86524 26.4058C1.72993 27.5284 0.917312 28.9226 0.509047 30.4484C0.10078 31.9742 0.111252 33.5778 0.53941 35.0979L6.73397 57.0891C8.70228 55.6021 11.0512 54.6708 13.5243 54.3975L8.40287 36.2171Z" fill="#003EE7"/>
<path d="M70.3045 26.9948L75.5969 45.7829C75.9441 47.0149 75.9522 48.3142 75.6216 49.5504C75.2905 50.787 74.6318 51.9167 73.7118 52.8263L54.5394 71.7831C53.6194 72.6927 52.4704 73.3499 51.2075 73.6893C49.945 74.0283 48.6129 74.0372 47.3462 73.7153L28.6464 68.9602C28.3992 71.3767 27.4762 73.6807 25.9781 75.6205L48.5975 81.3721C50.1609 81.7698 51.8045 81.7587 53.3626 81.34C54.9211 80.9213 56.339 80.1103 57.4745 78.9876L81.1346 55.5942C82.2701 54.4714 83.0824 53.0774 83.4908 51.5513C83.8992 50.0257 83.8887 48.422 83.4604 46.902L77.0322 24.0875C75.1062 25.6424 72.7781 26.6484 70.3045 26.9948Z" fill="#003EE7"/>
<path d="M7.30032 60.1258C5.7808 61.6279 4.75177 63.5364 4.34337 65.6085C3.93496 67.6811 4.16553 69.8249 5.00591 71.7689C5.84624 73.7124 7.25868 75.3694 9.06453 76.5298C10.8704 77.6897 12.9886 78.3015 15.1513 78.2869C17.314 78.2724 19.424 77.6321 21.2146 76.448C23.0051 75.2634 24.3958 73.5876 25.2106 71.6329C26.0255 69.6778 26.228 67.531 25.7926 65.4641C25.3571 63.3977 24.3033 61.5033 22.7642 60.0217C20.6989 58.0378 17.9109 56.9344 15.0119 56.9539C12.1128 56.9734 9.3395 58.1142 7.30032 60.1258Z" fill="#003EE7"/>
<path d="M60.5668 6.34355C59.0475 7.84591 58.0181 9.75394 57.61 11.8264C57.2016 13.8988 57.432 16.0425 58.2725 17.9865C59.1129 19.9304 60.5251 21.5872 62.3308 22.7474C64.1369 23.9077 66.2551 24.5192 68.4176 24.5047C70.5805 24.4901 72.6905 23.8501 74.4812 22.6657C76.2716 21.4813 77.6621 19.8055 78.477 17.8505C79.2919 15.8954 79.4944 13.7487 79.0588 11.682C78.6238 9.61526 77.5695 7.72126 76.0307 6.23948C73.9656 4.25543 71.1773 3.15214 68.2781 3.17165C65.3794 3.19116 62.6057 4.33188 60.5668 6.34355Z" fill="#003EE7"/>
<path d="M48.6034 69.2378C48.1642 69.2407 47.7269 69.1876 47.3019 69.0796L30.1847 64.7268C29.5955 61.7619 28.1015 59.0403 25.8986 56.9195C23.6957 54.7987 20.8869 53.3769 17.8405 52.8416L13.153 36.201C12.9206 35.371 12.9155 34.4958 13.1384 33.6631C13.3612 32.8303 13.8042 32.0691 14.4229 31.4555L31.8501 14.2243C32.47 13.6113 33.2442 13.1683 34.095 12.9397C34.9459 12.7112 35.8433 12.7052 36.697 12.9224L53.3343 17.1528C54.0124 20.0988 55.5867 22.7757 57.851 24.8331C60.1153 26.8904 62.9641 28.2322 66.0239 28.6827L70.845 45.8018C71.0772 46.6321 71.0825 47.5073 70.8593 48.3398C70.6365 49.1728 70.1937 49.9339 69.5746 50.5478L52.1475 67.7785C51.685 68.238 51.1331 68.604 50.5248 68.8542C49.9166 69.1048 49.2636 69.2351 48.6034 69.2378Z" fill="#003EE7"/>
<path d="M35.6357 49.1846C34.417 49.1846 33.3301 48.9385 32.375 48.4463C31.4199 47.9541 30.6699 47.2422 30.125 46.3105C29.5801 45.373 29.3076 44.2363 29.3076 42.9004V42.3115C29.3076 41.0811 29.5566 39.9941 30.0547 39.0508C30.5586 38.1016 31.2734 37.3604 32.1992 36.8271C33.1309 36.2881 34.2354 36.0186 35.5127 36.0186C36.4033 36.0186 37.25 36.1387 38.0527 36.3789C38.8613 36.6133 39.6113 37.0176 40.3027 37.5918V40.8877H38.0615L37.7539 38.998C37.4551 38.793 37.1328 38.6318 36.7871 38.5146C36.4414 38.3975 36.0518 38.3389 35.6182 38.3389C34.6455 38.3389 33.8633 38.6846 33.2715 39.376C32.6797 40.0615 32.3838 41.0342 32.3838 42.2939V42.9004C32.3838 43.6855 32.5215 44.377 32.7969 44.9746C33.0723 45.5664 33.4561 46.0293 33.9482 46.3633C34.4463 46.6973 35.0205 46.8643 35.6709 46.8643C36.0166 46.8643 36.3682 46.8291 36.7256 46.7588C37.083 46.6826 37.4287 46.583 37.7627 46.46L38.0703 44.6494H40.3203V47.875C39.8105 48.2266 39.1602 48.5342 38.3691 48.7979C37.5781 49.0557 36.667 49.1846 35.6357 49.1846ZM47.9875 49.1846C46.9446 49.1846 46.0188 49.085 45.2102 48.8857C44.4016 48.6865 43.5959 48.3115 42.7932 47.7607V44.4385H45.175L45.4387 46.1436C45.6262 46.3545 45.9573 46.5332 46.4319 46.6797C46.9065 46.8203 47.425 46.8906 47.9875 46.8906C49.177 46.8906 49.7717 46.4746 49.7717 45.6426C49.7717 45.2617 49.6252 44.9395 49.3323 44.6758C49.0393 44.4062 48.5295 44.1309 47.803 43.8496C46.7073 43.498 45.8079 43.1406 45.1047 42.7773C44.4016 42.4141 43.8772 41.9834 43.5315 41.4854C43.1916 40.9873 43.0217 40.3691 43.0217 39.6309C43.0217 38.9219 43.2239 38.3037 43.6282 37.7764C44.0325 37.2432 44.5891 36.8242 45.2981 36.5195C46.0071 36.2148 46.8186 36.0537 47.7327 36.0361C48.7756 36.0127 49.6985 36.1182 50.5012 36.3525C51.3039 36.5811 52.0129 36.9297 52.6282 37.3984V40.4834H50.343L49.9827 38.7695C49.7834 38.6699 49.4993 38.5791 49.1301 38.4971C48.761 38.415 48.3684 38.374 47.9524 38.374C47.4192 38.374 46.9768 38.4795 46.6252 38.6904C46.2737 38.9014 46.0979 39.2178 46.0979 39.6396C46.0979 39.8682 46.1653 40.0732 46.3 40.2549C46.4348 40.4307 46.6721 40.6094 47.012 40.791C47.3518 40.9668 47.8264 41.1719 48.4358 41.4062C49.8889 41.834 50.9905 42.3701 51.7405 43.0146C52.4963 43.6533 52.8743 44.5234 52.8743 45.625C52.8743 46.3809 52.6692 47.0254 52.259 47.5586C51.8489 48.0859 51.2776 48.4902 50.5452 48.7715C49.8127 49.0469 48.9602 49.1846 47.9875 49.1846Z" fill="white"/>
</svg>
